<?xml version="1.0" encoding="utf-8"?>
<svg version="1.1" xmlns:xlink="http://www.w3.org/1999/xlink" width="67px" height="67px" xmlns="http://www.w3.org/2000/svg">
  <defs>
    <filter x="84px" y="948px" width="67px" height="67px" filterUnits="userSpaceOnUse" id="filter21">
      <feOffset dx="5" dy="5" in="SourceAlpha" result="shadowOffsetInner" />
      <feGaussianBlur stdDeviation="2.5" in="shadowOffsetInner" result="shadowGaussian" />
      <feComposite in2="shadowGaussian" operator="atop" in="SourceAlpha" result="shadowComposite" />
      <feColorMatrix type="matrix" values="0 0 0 0 0.7725490196078432  0 0 0 0 0.9725490196078431  0 0 0 0 0.4588235294117647  0 0 0 1 0  " in="shadowComposite" />
    </filter>
    <g id="widget22">
      <path d="M 56.0625 13.734375  C 56.05816024896475 17.53816307038474  52.97566307038474 20.620660248964754  49.171875 21  L 34.40625 21  C 34.40625 20.625  34.40625 20.625  34.40625 20.625  C 30.057007595082503 20.625  26.53125 17.099242404917497  26.53125 12.75  C 26.53125 8.400757595082501  30.057007595082503 4.875  34.40625 4.875  L 34.571625 4.875  C 36.35077807170187 2.3897664962661187  39.22485868141265 0.9219010163321122  42.28124999999999 0.9374999999999991  C 46.347250021110014 0.9371288331411569  49.99190282852418 3.4454706771780375  51.4438125 7.243406249999998  C 54.21729830163682 8.191037644200673  56.076209940917806 10.80349786359939  56.0625 13.734375  Z M 36.5994375 8.8125  L 34.40625 8.8125  C 32.231628797541255 8.8125  30.46875 10.575378797541251  30.46875 12.75  C 30.46875 14.924621202458749  32.231628797541255 16.6875  34.40625 16.6875  C 34.40625 16.6875  34.40625 16.6875  34.40625 17  L 49.171875 17  C 50.801941591268765 16.685330913166908  52.12283091316691 15.364441591268765  52.125 13.734375  C 52.127582002317 12.274876372522602  51.05407039902009 11.036726056982966  49.6089375 10.8324375  L 48.30759375 10.637531249999999  L 47.988656250000005 9.359812499999997  C 47.36824953683154 6.732231228473104  45.022684431695545 4.875989797455499  42.322853357679364 4.875989797455499  C 40.17284785118757 4.875989797455499  38.197872914766386 6.060988480645214  37.186125 7.9580625  L 36.5994375 8.8125  Z M 56.0625 52  L 22.59375 52  L 22.593750000000004 45.998250000000006  C 26.10168986134067 45.59102519068864  29.36819989937975 44.00738892410585  31.860656249999998 41.505562499999996  C 32.62922069109283 40.7367659173873  32.62922069109283 39.49054658261269  31.860656249999998 38.72174999999999  L 23.50725 30.37031249999999  L 28.5 25.3775625  L 25.7161875 22.59375  L 20.723437500000003 27.5865  L 12.372000000000002 19.23309375  C 11.603203417387306 18.464529308907178  10.356984082612698 18.464529308907178  9.588187500000002 19.23309375  C 3.4383597516051543 25.383691764512726  3.4383597516051543 35.35496448548727  9.588187500000002 41.5055625  C 9.907125000000002 41.826468750000004  10.241812500000002 42.12178125  10.582406250000002 42.411187500000004  L 5.7255 52.125  L 0.9375 52.125  L 0.9375 56  L 56.0625 56  L 56.0625 52  Z M 18.65625 45.96871875  L 18.65625 52.125  L 10.127625 52.125  L 13.911562499999999 44.55909375  C 15.407652991992839 45.279451577515964  17.009531676277742 45.755362423137534  18.65625 45.96871875  Z M 27.570749999999997 39.999468750000005  C 22.870866222891248 43.337190190506824  16.448670213068414 42.79729314253078  12.371999999999998 38.72174999999999  C 8.29662072240277 34.64521993513694  7.755938322635115 28.223576664050274  11.092312499999998 23.523000000000003  L 27.570749999999997 39.999468750000005  Z " fill-rule="nonzero" fill="#333333" stroke="none" transform="matrix(1 0 0 1 84 948 )" />
    </g>
  </defs>
  <g transform="matrix(1 0 0 1 -84 -948 )">
    <use xlink:href="#widget22" filter="url(#filter21)" />
    <use xlink:href="#widget22" />
  </g>
</svg>